<?xml version="1.0" standalone="no"?>
<!DOCTYPE svg PUBLIC "-//W3C//DTD SVG 20010904//EN"
 "http://www.w3.org/TR/2001/REC-SVG-20010904/DTD/svg10.dtd">
<svg version="1.0" xmlns="http://www.w3.org/2000/svg"
 width="700.000000pt" height="700.000000pt" viewBox="0 0 700.000000 700.000000"
 preserveAspectRatio="xMidYMid meet">
<metadata>
Created by potrace 1.14, written by Peter Selinger 2001-2017
</metadata>
<g transform="translate(0.000000,700.000000) scale(0.100000,-0.100000)"
fill="#000000" stroke="none">
<path d="M785 6990 c-22 -5 -54 -11 -70 -14 -144 -26 -330 -132 -457 -259 -91
-92 -206 -293 -224 -393 -3 -15 -7 -31 -9 -35 -18 -27 -20 -383 -20 -2799 0
-2550 1 -2709 18 -2774 86 -337 317 -578 653 -683 l89 -28 2695 -2 c2937 -3
2768 -6 2932 53 222 80 406 245 512 460 39 80 74 187 84 259 10 68 9 5398 -1
5456 -57 347 -307 624 -663 736 l-89 28 -2705 1 c-1488 1 -2723 -2 -2745 -6z
m3000 -1373 c11 -2 47 -8 80 -12 212 -24 509 -116 725 -225 297 -150 560 -381
747 -655 130 -191 230 -416 287 -644 25 -98 30 -125 41 -221 4 -30 9 -66 12
-80 9 -44 11 -403 2 -480 -13 -121 -19 -162 -29 -215 -6 -27 -12 -60 -14 -72
-20 -103 -95 -337 -143 -443 -108 -242 -227 -414 -411 -597 -203 -201 -446
-358 -721 -464 -84 -32 -318 -93 -396 -103 -27 -4 -63 -9 -80 -12 -75 -12
-114 -15 -320 -20 -172 -5 -250 -3 -355 10 -176 21 -182 22 -335 61 -515 130
-937 422 -1225 848 -50 74 -181 319 -193 362 -3 11 -15 45 -27 75 -12 30 -23
62 -25 70 -35 136 -56 223 -60 255 -3 22 -8 51 -10 65 -14 81 -19 166 -20 335
0 164 10 338 20 355 2 3 6 32 10 64 3 33 8 63 10 66 2 4 7 22 10 41 39 223
166 524 318 749 52 78 172 222 243 294 316 319 813 545 1299 591 39 4 72 9 75
11 6 6 459 -2 485 -9z"/>
<path d="M3508 5355 c-1 -1 -39 -5 -83 -8 -350 -21 -619 -243 -784 -649 -61
-150 -126 -395 -146 -553 -3 -27 -8 -64 -11 -81 -20 -131 -28 -289 -28 -569 0
-255 4 -364 20 -495 2 -19 6 -57 9 -85 3 -27 8 -57 10 -65 2 -8 7 -35 10 -60
3 -25 8 -52 10 -60 2 -8 7 -29 9 -46 3 -17 17 -73 30 -125 113 -436 341 -749
622 -855 177 -66 407 -73 594 -18 219 65 408 239 535 493 71 142 147 367 170
501 3 19 8 42 10 50 5 16 8 35 25 155 7 44 14 98 16 120 1 22 6 78 11 125 4
47 7 209 8 360 0 309 -7 428 -41 650 -8 58 -17 116 -19 130 -2 14 -13 66 -25
115 -11 50 -23 100 -25 112 -3 12 -19 62 -36 110 -129 367 -346 617 -611 701
-89 28 -105 32 -183 38 -38 3 -75 7 -82 9 -6 2 -13 2 -15 0z"/>
</g>
</svg>
